<svg xmlns="http://www.w3.org/2000/svg" fill="none" viewBox="0 0 200 200" height="200" width="200">
  <g id="avatar-32--user-profile-avatar-lifestyle-character">
    <path id="Vector" fill="#42866C" d="M194.477 100.523c0 23.751 -8.768 45.456 -23.245 62.054 -1.415 1.623 -2.881 3.193 -4.399 4.712 -3.253 3.26 -6.737 6.282 -10.436 9.036 -7.324 5.455 -15.459 9.877 -24.205 13.04 -2.04 0.744 -4.116 1.414 -6.223 2.017 -6.438 1.839 -13.167 3.007 -20.089 3.432 -1.943 0.126 -3.908 0.186 -5.8801 0.186 -30.1003 0 -56.9182 -14.083 -74.2163 -36.018 -1.6152 -2.047 -3.1559 -4.168 -4.5999 -6.349 -9.8995 -14.931 -15.66051 -32.847 -15.66051 -52.11 0 -52.1771 42.29981 -94.47686 94.47671 -94.47686 52.1771 0 94.4771 42.29976 94.4771 94.47686" stroke-width="1"></path>
    <path id="Vector_2" fill="#1C1631" d="M128.455 6.60451C119.672 0.0544805 108.009 15.4545 107.89 18.7965c0 0 -14.5516 -11.55931 -34.5515 7.2944 -18.7495 17.6701 -6.5724 19.6054 -6.5724 19.6054l46.8629 36.8216 0.119 -16.978s12.073 -15.4223 6.937 -31.202c0 0 22.702 -16.5983 7.77 -27.73339" stroke-width="1"></path>
    <path id="Vector_3" fill="#F38E64" d="M171.232 162.577C153.919 182.443 128.426 195 100 195c-30.1004 0 -56.9183 -14.083 -74.2163 -36.018 11.7528 -18.742 28.6043 -44.6 35.2883 -49.929 10.7405 -8.567 22.1584 -2.404 22.1584 -2.404 -1.0718 -9.1775 2.1362 -11.5817 2.1362 -11.5817l-0.8038 -3.0294C48.0389 99.8756 66.766 45.6964 66.766 45.6964c3.089 -1.2727 6.8701 -6.7286 6.8701 -6.7286 2.8508 10.3981 20 17.8786 20 17.8786s7.5769 -12.4749 15.2209 -4.1161c6.952 7.6069 -6.728 14.6333 -6.728 14.6333 1.31 8.4853 11.105 11.3584 11.105 11.3584l1.176 9.2147c4.377 -0.521 5.605 14.1863 5.605 14.1863 48.425 -25.8945 51.135 46.915 51.217 60.454" stroke-width="1"></path>
    <path id="Vector_4" fill="#FFE6D7" d="M171.232 162.577C153.919 182.443 128.426 195 100 195c-30.1004 0 -56.9183 -14.083 -74.2163 -36.018 11.7528 -18.742 28.6043 -44.6 35.2883 -49.929 10.7405 -8.567 22.1584 -2.404 22.1584 -2.404 -1.0718 -9.1779 2.1362 -11.582 2.1362 -11.582s18.4514 -5.2996 29.0434 -7.1306c4.377 -0.5211 5.605 14.1866 5.605 14.1866 48.425 -25.8948 51.135 46.915 51.217 60.454" stroke-width="1"></path>
    <path id="Vector_5" fill="#ffffff" d="m106.156 128.338 -9.9074 -1.034 -0.4466 -4.511s-24.905 11.232 -33.3307 20.99c0 0 -20.4465 -20.179 -27.592 -22.248l0.0521 4.541s-7.1976 -2.174 -10.3014 -1.951l-0.4094 12.051 37.8785 24.064 44.0489 -27.168v-4.734z" stroke-width="1"></path>
    <path id="Vector_6" fill="#000000" d="m64.7117 146.835 -1.7641 -0.097c0.9974 -0.64 26.7584 -17.298 33.3084 -19.442l1.0495 0.112c-6.4607 2.114 -32.3482 19.271 -32.5938 19.427" stroke-width="1"></path>
    <path id="Vector_7" fill="#000000" d="M58.4147 146.745c-12.3855 -12.534 -32.1472 -19.464 -32.3482 -19.538l0.2457 -0.707c0.2009 0.067 20.9377 7.51 33.4498 20.171l-1.3473 0.067z" stroke-width="1"></path>
    <path id="Vector_8" fill="#000000" d="M61.1687 146.738c-12.8767 -13.934 -26.1033 -20.595 -26.2373 -20.662v-0.64c0.1265 0.067 14.6334 7.264 27.6143 21.309h-1.377z" stroke-width="1"></path>
    <path id="Vector_9" fill="#C2593F" d="m111.262 189.879 -5.382 4.935c-1.942 0.126 -3.907 0.186 -5.88 0.186 -30.1003 0 -56.9182 -14.083 -74.2163 -36.018 -1.6151 -2.047 -3.1559 -4.168 -4.5999 -6.349l0.5434 -26.163 35.7051 20.015 8.0684 0.216 42.9623 -20.849c0.357 -0.171 0.774 0.082 0.789 0.477l2.01 63.557z" stroke-width="1"></path>
    <path id="Vector_10" fill="#F38E64" d="M13.0111 135.685c-1.3174 3.237 3.6398 16.218 12.5419 18.265 1.8831 0 2.2999 -3.133 1.2951 -5.515 0 0 2.7614 1.25 3.8481 -0.417s0 -5.352 0 -5.352 2.8433 1.295 3.9747 -1.421c1.1314 -2.717 -2.4339 -8.53 -5.2475 -12.274 -2.8135 -3.744 -8.2322 -10.912 -12.192 -7.347 0 0 -2.5604 1.504 -0.1935 5.65 0 0 -4.8455 1.027 -2.2106 7.346 0 0 -1.2877 -0.223 -1.8087 1.065z" stroke-width="1"></path>
    <path id="Vector_11" fill="#58160D" d="M30.8451 143.247 16.115 127.683l0.9229 -0.409 13.6584 15.392z" stroke-width="1"></path>
    <path id="Vector_12" fill="#58160D" d="M27.1681 149.403c-2.3371 -2.553 -4.7041 -5.27 -7.0934 -8.165 -1.8533 -2.241 -3.595 -4.451 -5.2474 -6.617l-0.268 -0.7 12.2962 14.514 0.3201 0.968z" stroke-width="1"></path>
    <path id="Vector_13" fill="#000000" d="m67.1978 189.15 -2.0693 -42.434 0.7444 -0.037 2.0692 42.739z" stroke-width="1"></path>
    <path id="Vector_14" fill="#000000" d="m58.2807 185.309 -1.2206 -38.817 0.7443 -0.022 1.2281 39.203z" stroke-width="1"></path>
    <path id="Vector_15" fill="#58160D" d="m103.268 62.3988 -0.588 -0.4614c2.776 -3.5281 0.111 -7.1083 0 -7.2646l0.588 -0.454c0.029 0.0446 3.133 4.1905 0 8.1726z" stroke-width="1"></path>
    <path id="Vector_16" fill="#ffffff" d="M103.29 70.1027c1.673 0 3.029 -1.3563 3.029 -3.0294s-1.356 -3.0294 -3.029 -3.0294 -3.03 1.3563 -3.03 3.0294 1.357 3.0294 3.03 3.0294" stroke-width="1"></path>
    <path id="Vector_17" fill="#000000" d="m79.9776 60.1288 -0.3423 -0.6624c0.0744 -0.0373 1.898 -0.9751 4.7785 -1.4589 2.0022 -0.3275 3.9747 -0.3573 5.8727 -0.0893 1.243 0.1637 2.4711 0.454 3.6472 0.8634l-0.2457 0.6996c-1.1239 -0.3944 -2.2999 -0.6773 -3.4983 -0.8336 -1.8236 -0.2605 -3.729 -0.2307 -5.6494 0.0893 -2.754 0.4615 -4.5403 1.377 -4.5552 1.3845z" stroke-width="1"></path>
    <path id="Vector_18" fill="#000000" d="m61.4069 60.4713 -0.2605 -0.6996c0.0893 -0.0298 2.1734 -0.8039 4.9795 -1.2282 2.1436 -0.3126 4.0937 -0.3275 5.7982 -0.0446 1.124 0.1786 2.1586 0.4987 3.0815 0.9602l-0.3275 0.6699c-0.8559 -0.4243 -1.8161 -0.722 -2.8731 -0.8858 -1.63 -0.2679 -3.4983 -0.2531 -5.5675 0.0447 -2.7242 0.4019 -4.8083 1.176 -4.8306 1.1834" stroke-width="1"></path>
    <path id="Vector_19" fill="#20152C" d="M90.3685 59.1688c0 1.6598 -1.3398 2.9996 -2.9996 2.9996 -1.6599 0 -2.9996 -1.3398 -2.9996 -2.9996 0 -0.2754 0.0372 -0.536 0.1042 -0.789 1.63 -0.268 3.6025 -0.3945 5.761 -0.0893 0.0893 0.2828 0.134 0.5731 0.134 0.8783" stroke-width="1"></path>
    <path id="Vector_20" fill="#20152C" d="M72.0134 59.8013c0 1.645 -1.3323 2.9773 -2.9773 2.9773 -1.6449 0 -2.9847 -1.3323 -2.9847 -2.9773 0 -0.3051 0.0447 -0.6029 0.134 -0.8783 1.7417 -0.253 3.7513 -0.3647 5.6791 -0.0446 0.0968 0.2903 0.1489 0.6029 0.1489 0.9229" stroke-width="1"></path>
    <path id="Vector_21" fill="#58160D" d="M75.5044 73.5935c-1.6673 0 -2.754 -0.4317 -3.3272 -1.3025 -1.1685 -1.8013 0.3945 -4.9423 1.5333 -7.2348 0.3275 -0.655 0.6029 -1.2133 0.7816 -1.6599 0.9453 -2.3892 0.4094 -3.1112 0.4019 -3.1187l0.5434 -0.5061c0.1488 0.1563 0.8559 1.0793 -0.2531 3.8928 -0.1861 0.4689 -0.4764 1.0495 -0.8039 1.7119 -1.0643 2.1362 -2.5158 5.054 -1.5779 6.498 0.4614 0.7071 1.5184 1.0271 3.1484 0.9527l0.0298 0.7443c-0.1637 0 -0.3275 0.0149 -0.4838 0.0149z" stroke-width="1"></path>
    <path id="Vector_22" fill="#58160D" d="M78.5635 80.4487c-0.8411 0 -1.377 -0.2531 -1.4291 -0.2754l0.3275 -0.6699c0.1042 0.0521 2.5754 1.1686 5.4187 -2.4116l1.0867 0.9899c-1.898 2.3893 -4.2129 2.367 -5.4038 2.367" stroke-width="1"></path>
    <path id="Vector_23" fill="#58160D" d="m84.8084 92.9608 -0.2457 -0.923c8.0834 -2.5754 9.8325 -7.1455 9.8549 -7.1901l0.6847 0.2902c-0.0744 0.1861 -1.8459 5.1359 -10.2939 7.8303z" stroke-width="1"></path>
    <path id="Vector_24" fill="#000000" d="M95.3554 112.946c-1.1462 0 -2.2627 -0.097 -3.342 -0.283 -5.9694 -1.05 -8.6788 -5.865 -8.783 -6.022l-0.0893 -0.841s3.5281 4.637 9.1924 5.62c5.1135 0.893 14.0525 0.015 27.6145 -9.967l0.067 0.655c-9.513 6.997 -17.641 10.83 -24.6596 10.83z" stroke-width="1"></path>
    <path id="Vector_25" fill="#ffffff" d="M64.5554 71.9633c-1.9427 0 -3.7886 -0.8187 -5.2103 -2.3073 -1.8161 -1.9055 -2.7763 -4.6967 -2.6349 -7.6666 0.2605 -5.4707 4.1682 -9.9218 8.7235 -9.9218 1.9426 0 3.7886 0.8188 5.2102 2.3074 1.8162 1.9055 2.7763 4.6967 2.6349 7.6665 -0.2605 5.4708 -4.1682 9.9218 -8.7234 9.9218m0.8783 -18.7048c-3.9301 0 -7.3093 3.9375 -7.5326 8.783 -0.1265 2.6498 0.7146 5.121 2.3074 6.7883 1.2058 1.2653 2.7094 1.9352 4.3469 1.9352 3.93 0 7.3092 -3.9375 7.5325 -8.783 0.1265 -2.6498 -0.7145 -5.1209 -2.3074 -6.7882 -1.2058 -1.2654 -2.7093 -1.9353 -4.3468 -1.9353" stroke-width="1"></path>
    <path id="Vector_26" fill="#ffffff" d="M85.9174 71.316c-2.1139 0 -4.131 -0.8932 -5.6717 -2.5158 -1.9799 -2.0767 -3.0294 -5.1284 -2.8806 -8.3736 0.2829 -5.9695 4.5478 -10.8299 9.5125 -10.8299 2.1138 0 4.131 0.8932 5.6717 2.5158 1.9799 2.0766 3.0294 5.1284 2.8805 8.3736 -0.2828 5.9695 -4.5478 10.8299 -9.5124 10.8299m0.9602 -20.5284c-4.3394 0 -8.0759 4.3468 -8.329 9.6985 -0.134 2.9177 0.789 5.6494 2.553 7.4953 1.3398 1.3994 2.9996 2.1437 4.8158 2.1437 4.3394 0 8.0759 -4.3469 8.3289 -9.6911 0.134 -2.9177 -0.7889 -5.6494 -2.553 -7.4953 -1.3398 -1.3993 -2.9996 -2.1437 -4.8157 -2.1437z" stroke-width="1"></path>
    <path id="Vector_27" fill="#ffffff" d="M77.7522 61.0144h-4.8158v1.1537h4.8158z" stroke-width="1"></path>
    <path id="Vector_28" fill="#45405E" d="M73.2789 39.0794c-2.5307 -7.5177 2.3371 -14.9609 2.5456 -15.2735l0.6177 0.4094c-0.0521 0.0744 -4.8678 7.4581 -2.4562 14.6259z" stroke-width="1"></path>
    <path id="Vector_29" fill="#45405E" d="M120.32 34.4125c-2.196 -10.949 -12.46 -15.2288 -12.564 -15.2735l0.283 -0.6922c0.104 0.0446 10.748 4.4808 13.018 15.8168l-0.73 0.1489z" stroke-width="1"></path>
    <path id="Vector_30" fill="#F38E64" d="M156.397 176.325c-0.454 0.342 -0.915 0.677 -1.384 1.012 -0.462 0.328 -0.931 0.655 -1.4 0.983 -0.468 0.327 -0.945 0.647 -1.421 0.96 -0.477 0.32 -0.953 0.633 -1.437 0.938 -0.476 0.305 -0.96 0.61 -1.451 0.908 -0.484 0.298 -0.975 0.595 -1.474 0.886 -0.819 0.483 -1.652 0.96 -2.501 1.421 -0.29 0.164 -0.588 0.32 -0.886 0.484 -0.201 0.104 -0.409 0.216 -0.625 0.32 -0.327 0.179 -0.655 0.35 -0.99 0.514 -0.439 0.23 -0.885 0.454 -1.34 0.67 -0.945 0.468 -1.898 0.915 -2.858 1.339 -0.506 0.231 -1.012 0.454 -1.526 0.678 -0.067 0.022 -0.126 0.052 -0.186 0.074 -0.476 0.201 -0.96 0.402 -1.436 0.596 -0.037 0.014 -0.075 0.029 -0.104 0.037 -0.521 0.216 -1.035 0.417 -1.556 0.61 -0.543 0.209 -1.087 0.417 -1.63 0.61 -0.864 -1.086 -1.6 -2.113 -1.809 -2.627 -0.565 -1.377 0 -3.067 0 -3.067L118.4 166.358s-14.358 6.394 -17.12 4.638c-2.6868 -1.712 -0.022 -6.156 0.119 -6.387 -0.268 0.149 -6.6167 3.737 -8.3361 -0.007 -1.6077 -3.484 2.7391 -6.297 3.5206 -6.781 -0.6922 0.372 -4.3915 2.084 -5.5303 -2.002 -1.2504 -4.518 18.5708 -15.058 18.5708 -15.058v-4.949s6.52 1.816 11.604 2.634c5.076 0.812 23.893 27.22 23.893 27.22z" stroke-width="1"></path>
    <path id="Vector_31" fill="#FFE6D5" d="M156.397 176.325c-0.454 0.342 -0.915 0.677 -1.384 1.012 -0.462 0.327 -0.931 0.655 -1.399 0.982 -0.469 0.328 -0.946 0.648 -1.422 0.961 -0.476 0.32 -0.953 0.632 -1.437 0.938 -0.476 0.305 -0.96 0.61 -1.451 0.908 -0.484 0.297 -0.975 0.595 -1.474 0.885 -0.819 0.484 -1.652 0.961 -2.501 1.422 -0.29 0.164 -0.588 0.32 -0.886 0.484 -0.2 0.104 -0.409 0.216 -0.625 0.32 -0.327 0.178 -0.655 0.35 -0.99 0.513 -0.439 0.231 -0.885 0.454 -1.339 0.67 -0.946 0.469 -1.898 0.916 -2.859 1.34 -0.506 0.231 -1.012 0.454 -1.526 0.677 -0.067 0.023 -0.126 0.053 -0.186 0.075 -0.476 0.201 -0.96 0.402 -1.436 0.595 -0.037 0.015 -0.075 0.03 -0.104 0.038 -0.521 0.215 -1.035 0.416 -1.556 0.61 -0.543 0.208 -1.087 0.417 -1.63 0.61 -0.863 -1.086 -1.6 -2.114 -1.809 -2.627 -0.565 -1.377 0 -3.067 0 -3.067 7.845 -5.046 14.738 -18.005 14.738 -18.005z" stroke-width="1"></path>
    <path id="Vector_32" fill="#000000" d="m156.137 176.593 -11.418 -10.205 0.402 -0.722 11.529 10.383z" stroke-width="1"></path>
    <path id="Vector_33" fill="#000000" d="M131.783 189.514c-0.708 -0.893 -1.497 -2.01 -1.75 -2.642 -0.61 -1.489 0.32 -3.134 0.343 -3.208l0.424 -0.283s-0.588 1.98 -0.082 3.208c0.171 0.424 0.878 1.451 1.824 2.642l-0.767 0.283z" stroke-width="1"></path>
    <path id="Vector_34" fill="#000000" d="m138.615 157.039 -7.398 -20.133 2.062 -0.261 6.386 21.63z" stroke-width="1"></path>
    <path id="Vector_35" fill="#58160D" d="m96.4495 157.918 -0.9899 0.357 15.5264 -10.056 0.61 0.849z" stroke-width="1"></path>
    <path id="Vector_36" fill="#58160D" d="m101.399 164.609 14.321 -9.081 1.005 1.638z" stroke-width="1"></path>
  </g>
</svg>