<svg xmlns="http://www.w3.org/2000/svg" viewBox="0 0 250 250" id="Illustrator-Drawing--Streamline-Free-Illustrations" height="200" width="200">
  <desc>
    Illustrator Drawing Streamline Illustration: https://streamlinehq.com
  </desc>
  <g>
    <path d="m170.511 73.585-1.571-.478a7.855 7.855 0 0 0-1.229-.273c-1.5-.2-3.005.614-4.234 1.229l-.41-.82c.341-.2.683-.341 1.092-.546a8.4 8.4 0 0 1-1.57-2.459 7.937 7.937 0 0 0-.956-1.639 3.532 3.532 0 0 0-2.459-1.5 1.405 1.405 0 0 0-1.161.478l-.068.068a26.362 26.362 0 0 1 0 3.278s-.888.069-.888-.068a38.48 38.48 0 0 0 0-3.961 4.252 4.252 0 0 0-3.483-2.254h-.752a5.083 5.083 0 0 1-1.434-.068c-2.254-.41-3.21-2.937-3.756-4.781-.546-1.912-1.366-3.893-3-4.3a8.288 8.288 0 0 0-1.3-.137c-1.024 0-2.117-.068-2.731-1.024a3.907 3.907 0 0 1-.41-1.708 2.152 2.152 0 0 0-.342-1.366c-.205-.273-.683-.341-1.092-.478a3.047 3.047 0 0 1-1.571-.751 2.271 2.271 0 0 1-.547-1.639 196.736 196.736 0 0 0-.683-4.576c-.273-1.5-.478-3.073-.614-4.1-1.025 1.571-1.23 3.757-1.5 5.6-.273 2.048-.888 4.3-2.732 5.327a4.189 4.189 0 0 1-.819.341c.273 1.229.615 2.527.956 3.756.068.137.068.273.137.342a.732.732 0 0 0 .409.136l3.825.82.068.2a16.667 16.667 0 0 0 1.913 3.824.815.815 0 0 0 .341.342c.137.068.341-.068.615-.137.136-.068.273-.068.409-.136 1.5-.41 2.869.819 3.62 2.253a4.228 4.228 0 0 1 .342.82 5.422 5.422 0 0 0 1.57 2.39l-.478.752a5.082 5.082 0 0 1-1.912-2.8c-.137-.273-.2-.546-.341-.751-.547-1.093-1.5-2.117-2.527-1.844a.523.523 0 0 0-.274.137 1.5 1.5 0 0 1-1.229.136 1.811 1.811 0 0 1-.751-.683 16.2 16.2 0 0 1-1.912-3.756l-3.347-.751a2.614 2.614 0 0 1-.819-.342 1.085 1.085 0 0 1-.342-.683c-.341-1.229-.683-2.458-.956-3.687a2.607 2.607 0 0 0-1.366 1.024 3.649 3.649 0 0 0-.273 2.254c.136 1.707.273 3.346.41 5.054a2.022 2.022 0 0 1-.137 1.092 2.075 2.075 0 0 1-.888.615 11.413 11.413 0 0 0-3.619 2.868 2.458 2.458 0 0 0 .546 1.025 4.059 4.059 0 0 0 1.366.956 4.008 4.008 0 0 1 .546.273 13.719 13.719 0 0 1 3.005 2.595c.2-.2.41-.478.615-.683a8.759 8.759 0 0 1 2.732-1.707 6.876 6.876 0 0 1 3.141-.751c-.068.068-.136.2-.205.273h.069a21.936 21.936 0 0 0 2.45 5.671.241.241 0 0 1 .069.137h.136a11.716 11.716 0 0 1 2.186-.137 1.726 1.726 0 0 1 .819.137 2.972 2.972 0 0 1 .82.751 57.309 57.309 0 0 0 4.917 5.874l-.615.614a58.874 58.874 0 0 1-4.985-5.941 1.075 1.075 0 0 0-.478-.478 1 1 0 0 0-.478-.069 10.309 10.309 0 0 0-2.049.137 1.236 1.236 0 0 1-.683-.068 1.165 1.165 0 0 1-.41-.41 21.489 21.489 0 0 1-2.39-5.259 24.828 24.828 0 0 0-4.1 12.84 28.832 28.832 0 0 1-17.962-.069c-5.737-1.912-10.108-6.01-13.659-10.927 1.434-2.8 2.8-5.532 4.234-8.332a4.318 4.318 0 0 1 1.23-1.639 3.385 3.385 0 0 1 1.098-.338 16.174 16.174 0 0 1 5.737.069c.956-2.049 1.571-3.757 3.415-5.054a27.322 27.322 0 0 1 3.142-1.639 12.377 12.377 0 0 0 2.185-1.5c-2.527-4.917-1.434-12.088 2.8-16.527a16.4 16.4 0 0 1 16.255-4.235 13.531 13.531 0 0 1 5.4 2.8 14.263 14.263 0 0 1 4.644 11 17.716 17.716 0 0 1-4.166 11c1.912.614 2.8 2.732 3.415 4.78.478 1.639 1.3 3.825 3.073 4.166a3.674 3.674 0 0 0 1.229 0h.888a5.2 5.2 0 0 1 4.3 2.732 2.4 2.4 0 0 1 1.366-.341 4.472 4.472 0 0 1 3.141 1.844 15.092 15.092 0 0 1 1.025 1.775 8.133 8.133 0 0 0 1.639 2.459 5.52 5.52 0 0 1 2.8-.41 8.024 8.024 0 0 1 1.366.342l1.571.478a87.719 87.719 0 0 0 10.312 2.595 3.288 3.288 0 0 1 .069-.819c-10.45-5.942-29.709-16.938-32.919-18.987l.478-.751c3.074 1.981 21.787 12.7 32.372 18.713-.478-4.849-4.439-8.742-7.034-13.044a24.612 24.612 0 0 1-2.186-4.713l-21.239-5.395.2-.888 20.489 5.6a46.832 46.832 0 0 1-1.98-10.244l-17.689.2v-.888l17.552-.2c-.273-3.346-.478-6.693-.751-9.971l-17.143 5.532-.273-.82 17.347-5.6V32.4a29.532 29.532 0 0 0-1.98-8.537c-5.874 3.21-11.132 6.215-17.142 9.971l-.478-.751c6.078-3.757 11.337-6.83 17.21-10.04a16.573 16.573 0 0 0-7.854-8.264c-4.371 4.918-8.537 9.835-12.84 15.025l-.682-.546c4.3-5.122 8.4-9.971 12.7-14.888a21.905 21.905 0 0 0-12.635-.82c-.137 0-.342.068-.478.068-1.434 4.576-2.869 9.152-4.235 13.728l-.819-.273c1.3-4.44 2.663-8.811 4.1-13.25-3.347.752-6.762 1.708-10.245 2.8.205 3.415.342 6.83.342 10.176h-.888c-.068-3.278-.137-6.624-.342-9.971-3.141.956-6.283 1.981-9.424 2.937a391.095 391.095 0 0 1 3.414 9.561l-.819.274c-1.093-3.21-2.254-6.352-3.415-9.562-3.21.956-6.42 1.776-9.7 2.459a271.69 271.69 0 0 1 8.742 11.132l-.683.546c-2.868-3.892-5.942-7.717-9.015-11.473a47.179 47.179 0 0 1-14.82.614c-5.6-.751-10.859-3.073-16.254-4.712-8.4-2.595-17.962-3.483-25.68.751-6.28 3.486-10.31 9.974-15.841 14.618-6.352 5.327-14.957 8.674-18.577 16.187-4.166 8.468 1.23 17.005 5.808 24.04 5.531 8.605 13.385 15.434 21.718 21.239 5.395 3.757 11.063 7.1 16.186 11.2a53.983 53.983 0 0 1 6.761 6.351c1.844 2.118 3.141 5.669 5.259 7.445 4.029 3.346 13.932.887 19.054 1.229a101.272 101.272 0 0 1 23.9 4.507 3.6 3.6 0 0 0 2.526.2 3.678 3.678 0 0 0 1.776-2.117c2.595-5.122 4.917-11.883 8.81-15.981 4.713-4.917 11-8.127 17.211-10.722 8.264-3.415 16.937-6.01 24.176-11.2 3.483-2.527 6.83-6.01 7.581-10.108a90.029 90.029 0 0 1-10.447-2.658M94.157 22.91l23.152 16.254-.478.751L93.61 23.661zm22.2 20.83v.888l-27.114.819v-.888zM78.312 67.711l-.41-.819a335.75 335.75 0 0 1 39.68-17.415l.273.819a363.8 363.8 0 0 0-39.543 17.415" fill="#14d29b" transform="scale(1.25)"></path>
    <path d="M121.611 67.438a34.965 34.965 0 0 0-2.458 7.718 3.7 3.7 0 0 0 3.756.2 10.846 10.846 0 0 0 3-2.6c.819-.887 1.639-1.775 2.39-2.731a10.9 10.9 0 0 0-2.8-2.527c-.2-.069-.341-.2-.546-.274a5.146 5.146 0 0 1-1.639-1.161 2.79 2.79 0 0 1-.478-.751c-.405.688-.815 1.375-1.225 2.126m15.162-23.562c.273 1.776.615 3.552.683 4.644a2.591 2.591 0 0 0 .341 1.161c.205.274.683.342 1.093.479a2.634 2.634 0 0 1 1.5.751 2.842 2.842 0 0 1 .546 1.912 2.039 2.039 0 0 0 .273 1.3c.342.546 1.161.614 2.049.614a4.787 4.787 0 0 1 .956.069 16.713 16.713 0 0 0 4.234-10.791 13.783 13.783 0 0 0-4.37-10.449 12.975 12.975 0 0 0-5.123-2.6 15.6 15.6 0 0 0-15.5 4.03c-3.824 4.1-4.985 10.859-2.732 15.5.888-.751 1.708-1.571 2.6-2.322a90.761 90.761 0 0 1 11.951-8.537v-.205l.888-.068a38.213 38.213 0 0 0 .611 4.512" fill="#14d29b" transform="scale(1.25)"></path>
    <path d="M179.594 183.814c-.41-6.693-.956-13.8-5.054-19.055-2.663-3.414-6.488-5.668-10.449-7.375-12.225-5.259-25.884-5.874-39.133-5.942-26.294-.137-53.339 1.776-77.379 12.566-6.488 2.937-12.7 6.488-17.825 11.406s-9.015 11.268-10.108 18.3c13.318-4.166 27.591-2.595 41.455-.82s27.66 4.508 41.592 4.439c6.352-.068 12.635-.682 18.987-1.365 20.283-2.183 39.27-3.754 57.914-12.154" fill="#fdb849" transform="scale(1.25)"></path>
    <path d="M35.217 188.663c5.123-6.9 12.7-11.337 19.328-16.6a38.4 38.4 0 0 0 8.537-8.742 21.053 21.053 0 0 0 2.732-5.737 131.279 131.279 0 0 0-18.235 6.42c-6.488 2.937-12.7 6.488-17.825 11.406s-9.015 11.268-10.108 18.3a57.355 57.355 0 0 1 14-2.459 10.942 10.942 0 0 1 1.571-2.588m139.323-23.972c-2.663-3.415-6.488-5.668-10.449-7.376-1.5-.614-3-1.229-4.507-1.707a19.887 19.887 0 0 1-1.025 3.961 29.936 29.936 0 0 1 8.4 5.259 27.714 27.714 0 0 1 6.556 8.537.5.5 0 0 1-.683.683 10.873 10.873 0 0 0-1.981-1.025 23.02 23.02 0 0 0-9.356-1.5 17.831 17.831 0 0 0-8.605 2.117c-2.459 1.434-4.644 3.278-7.171 4.712a14.683 14.683 0 0 1-3.825 1.639 13.386 13.386 0 0 1-4.371.342c-7.1-.41-14.2-1.639-21.308-1.161-6.9.478-14.206 2.937-19.054 7.922a29.068 29.068 0 0 0-6.011 9.562 108.939 108.939 0 0 0 11.542.478c6.352-.069 12.635-.683 18.987-1.366 20.352-2.049 39.338-3.62 57.983-12.089-.478-6.558-1.024-13.661-5.122-18.988" fill="#ffd340" transform="scale(1.25)"></path>
    <path d="M99.415 37.388a13.512 13.512 0 0 1-2.185 7.923 4.925 4.925 0 0 1-2.117 1.98 1.513 1.513 0 0 1-1.093.068c-.615-.2-.956-.956-1.161-1.57-1.161-3.483-2.732-9.493-.615-12.977a3.055 3.055 0 0 1 4.03-1.161c2.253.957 3.073 3.483 3.141 5.737" fill="#f9bdb4" transform="scale(1.25)"></path>
    <path d="M96.683 34.042a21.6 21.6 0 0 0-1.434 6.283 5.257 5.257 0 0 1 1.981-.683 19.157 19.157 0 0 0-4.03 5.873c.274-.683-.546-2.8-.546-3.619a7.9 7.9 0 0 1 .478-2.527 12.038 12.038 0 0 1 3.551-5.327" fill="#ef6767" transform="scale(1.25)"></path>
    <path d="M85.756 71.741c-4.439 2.8-9.7 2.732-14.41 1.024a20.763 20.763 0 0 0 1.98-11.132c1.844-1.912 4.849-2.6 9.084-1.571a23.3 23.3 0 0 0 6.9 8.606 13.911 13.911 0 0 1-3.554 3.073" fill="#f9bdb4" transform="scale(1.25)"></path>
    <path d="M80.975 66.346a7.122 7.122 0 0 1-4.3-.274 33.664 33.664 0 0 1-3.275-1.434c0-.956 0-1.912-.069-3.005 1.844-1.912 4.849-2.6 9.084-1.571a31.2 31.2 0 0 0 1.707 3.005 5.717 5.717 0 0 1-3.147 3.279" transform="scale(1.25)"></path>
    <path d="M89.444 21.2a72.171 72.171 0 0 1 4.849 16.733c.82 5.19 1.844 11.815-.41 16.732a14.4 14.4 0 0 1-7.444 6.9 30.348 30.348 0 0 1-13.727 2.049 15.931 15.931 0 0 1-9.22-3.278c-2.664-2.186-4.166-5.4-5.737-8.333a83.379 83.379 0 0 1-5.191-11.883c-1.843-5.6-3.414-13.32-1.164-19.054A19.741 19.741 0 0 1 63.287 9.933c6.693-2.185 13.591-.683 19.328 3.074a18.924 18.924 0 0 1 6.829 8.2" fill="#f9bdb4" transform="scale(1.25)"></path>
    <path d="M71 42.374a28.476 28.476 0 0 1-3.414 1.093 18.776 18.776 0 0 1-3.415.273 5.469 5.469 0 0 1-1.776-.205c1.912 1.639 3.825 2.6 5.8 2.254a6.659 6.659 0 0 0 4.986-4.166c-.742.341-1.425.409-2.181.751" fill="#ffffff" transform="scale(1.25)"></path>
    <path d="M71 42.374a20.823 20.823 0 0 1-3.342 1.026 15.448 15.448 0 0 1-.615 2.391 3.728 3.728 0 0 0 1.229 0 6.657 6.657 0 0 0 4.986-4.166c-.819.339-1.502.407-2.258.749" transform="scale(1.25)"></path>
    <path d="M78.927 49.886c.068-4.78-.41-6.9-1.708-12.225 3.074 6.352 4.986 7.308 6.9 8.947a48.1 48.1 0 0 0-5.192 3.278" fill="#ef6767" transform="scale(1.25)"></path>
    <path d="M51.95 42.032c-1.366-.341-3.073-.409-4.03.615a2.977 2.977 0 0 0-.751 1.844 7.728 7.728 0 0 0 2.322 5.737 15.581 15.581 0 0 0 9.766 4.985 2.869 2.869 0 0 0 2.664-.751 2.6 2.6 0 0 0 .41-1.571 8.939 8.939 0 0 0-1.844-4.575c-2.322-3.142-4.644-5.328-8.537-6.284" fill="#f9bdb4" transform="scale(1.25)"></path>
    <path d="M59.326 51.867c-2.459-5.532-5.942-6.556-9.288-7.718a26.1 26.1 0 0 1 6.078 5.191 6.607 6.607 0 0 0-3.62.478c2.459.41 3.278.82 6.83 2.049" fill="#ef6767" transform="scale(1.25)"></path>
    <path d="M79.2 33.7a16.158 16.158 0 0 1 6.078-2.117 40.977 40.977 0 0 1 6.488-.273 8.655 8.655 0 0 0-4.3-2.186 14.57 14.57 0 0 0-3-.2 18.342 18.342 0 0 0-6.352.887A15.785 15.785 0 0 1 79.2 33.7m-6.625 1.23a14.878 14.878 0 0 0-6.488.2 38.351 38.351 0 0 0-6.147 2.049 8.717 8.717 0 0 1 3.21-3.619 12.37 12.37 0 0 1 2.732-1.23A18.29 18.29 0 0 1 72.1 30.9a25.984 25.984 0 0 0 .475 4.03m3.893 21.308a7.883 7.883 0 0 1-4.986-1.708l.752-.956c3.688 2.869 8.4 1.025 11.405-1.434l.751.888a13.239 13.239 0 0 1-7.922 3.21" transform="scale(1.25)"></path>
    <path d="M56.389 29.4c3.142.819 6.488-.478 9.152-2.391s4.78-4.439 7.239-6.488c2.527-2.049 5.6-3.756 8.878-3.483 3.552.273 6.557 2.937 8.264 6.078a31.1 31.1 0 0 1 2.937 10.177c2.732-4.3 5.122-8.128 7.854-12.43a12.091 12.091 0 0 0 2.322-5.464 5.88 5.88 0 0 0-2.868-5.532c-2.8-1.571-6.42-.273-9.152 1.434-.41-2.322-.615-5.19-1.776-7.239S86.166.235 83.776.031c-3.276-.342-6.01 2.253-8.742 4.029a20.753 20.753 0 0 1-10.586 3.278c-3.483.137-6.966-.683-10.381-1.024-3.483-.342-7.171-.205-10.176 1.571S38.837 13.416 40 16.763a8.964 8.964 0 0 0 2.527 3.483 18.671 18.671 0 0 0 4.439 3.142A9.145 9.145 0 0 0 39.93 34.11a5.4 5.4 0 0 0 .819 2.049c1.161 1.639 3.347 2.049 5.327 2.527 4.235 1.024 8.469 3.278 10.313 7.239 1.981-5.395 1.434-11.064 0-16.525" fill="#ef6767" transform="scale(1.25)"></path>
    <path d="M62.058 43.74c1.229-2.117 3.961-4.439 5.873-4.644a6.153 6.153 0 0 1 5.259 2.458 27.213 27.213 0 0 1-11.132 2.186" fill="#ef6767" transform="scale(1.25)"></path>
    <path d="M60.418 43.4a37.132 37.132 0 0 0 13.591-2.254 14.259 14.259 0 0 1-6.488 3.005 13.737 13.737 0 0 1-7.103-.751" transform="scale(1.25)"></path>
    <path d="M89.649 38.959a28.37 28.37 0 0 1-3.415 1.093 18.687 18.687 0 0 1-3.415.273 5.463 5.463 0 0 1-1.775-.205c1.912 1.639 3.824 2.6 5.805 2.254a6.654 6.654 0 0 0 4.985-4.166c-.751.341-1.434.41-2.185.751" fill="#ffffff" transform="scale(1.25)"></path>
    <path d="M89.649 38.959a20.784 20.784 0 0 1-3.349 1.024 15.448 15.448 0 0 1-.615 2.391 3.728 3.728 0 0 0 1.229 0 6.657 6.657 0 0 0 4.986-4.166c-.817.341-1.5.41-2.251.751" transform="scale(1.25)"></path>
    <path d="M80.7 40.325c1.23-2.117 3.961-4.439 5.874-4.644a6.153 6.153 0 0 1 5.258 2.458A27.206 27.206 0 0 1 80.7 40.325" fill="#ef6767" transform="scale(1.25)"></path>
    <path d="M79.063 40.052A37.156 37.156 0 0 0 92.654 37.8a14.274 14.274 0 0 1-6.488 3 14.5 14.5 0 0 1-7.103-.748" transform="scale(1.25)"></path>
    <path d="M86.985 139.012a57.108 57.108 0 0 1-19.327-8.537 14.946 14.946 0 0 1-4.576-4.439c-1.5-2.595-1.5-5.737-1.434-8.742s.136-6.01.2-9.015c.136-7.034-.069-13.864.956-20.83a28.672 28.672 0 0 1 2.049-7.991 12.46 12.46 0 0 1 5.463-6.078c.888 1.639 2.6 1.981 4.44 2.117a16.435 16.435 0 0 0 5.4-1.024c4.166-1.3 8.742-2.869 10.995-6.693 8.879 5.122 18.031 11.337 22.06 20.762 2.595 6.01 2.868 12.771 4.029 19.191a72.971 72.971 0 0 0 2.869 10.722c.683 1.981 1.5 3.961 1.434 6.01-.068 3.551-2.6 6.625-5.4 8.879-8.396 6.692-18.777 8.127-29.158 5.668" fill="#9778ff" transform="scale(1.25)"></path>
    <path d="M72.165 91.137a1.637 1.637 0 0 0-.409 2.254l17 24.449 2.39 1.435.2.273a.446.446 0 0 0 .752-.478l-.2-.273-.478-2.732-17.001-24.45a1.531 1.531 0 0 0-2.254-.478" fill="#ffffff" transform="scale(1.25)"></path>
    <path d="m72.313 94.494 2.972-2.067.897 1.29-2.972 2.066z" transform="scale(1.25)"></path>
    <path d="m73.19 114.767 2.663-7.581a21.293 21.293 0 0 1 2.117-4.78c1.571-2.6 4.03-4.44 6.489-6.284a6.364 6.364 0 0 1 2.936-1.5 2.171 2.171 0 0 1 2.459 1.707 2.276 2.276 0 0 1 2.185 1.5 3.394 3.394 0 0 1 .069 1.434c0 .683-.069 1.366-.069 2.049.41-.068.683.341.82.751a1.91 1.91 0 0 1-.068 1.229 6.278 6.278 0 0 1-.615 1.571c.137 1.844.41 3.757.546 5.6a2.7 2.7 0 0 1-2.185-1.23 4.586 4.586 0 0 0-1.912-1.707.578.578 0 0 0-.478 0c-.205.068-.274.273-.41.478-1.23 3-2.117 6.351-4.576 8.537a8.455 8.455 0 0 1-4.644 2.049 5.4 5.4 0 0 1-3.688-.82c-1.093-.749-2.049-1.77-1.639-3.003" fill="#f9bdb4" transform="scale(1.25)"></path>
    <path d="M56.252 164.145c-1.024 2.595-3.619 4.166-6.078 5.532-3.62 1.98-7.376 3.688-10.722 6.146a20.575 20.575 0 0 0-7.649 9.425 8.559 8.559 0 0 0-.478 4.713 5.113 5.113 0 0 0 2.663 3.756c2.049 1.024 4.508.273 6.556-.615 8.2-3.551 15.435-9.151 23.9-11.952 1.093-1.844 1.024-3.824 1.434-5.941a18.4 18.4 0 0 0 .41-6.693 7.734 7.734 0 0 0-3.483-5.532c-1.905-1.161-5.733-.884-6.553 1.161" fill="#643cff" transform="scale(1.25)"></path>
    <path d="M148.247 148.437a38.115 38.115 0 0 1 8.673 2.049c3.005 1.092 6.01 2.8 7.308 5.737 1.366 3.209.136 7.034-2.254 9.561s-5.737 3.824-9.083 4.712c-5.942 1.571-12.157 1.913-18.235 2.459-3.893.341-7.786.888-11.679 1.366q-18.849 2.459-37.631 5.4c-1.3.2-3.141.069-3.414-1.229a1.791 1.791 0 0 1 .136-1.025c2.391-8.4 9.63-14.546 17.279-18.713 14-7.717 30.323-10.654 46.373-10.449.48-.005 1.98.064 2.527.132" fill="#ff465a" transform="scale(1.25)"></path>
    <path d="M145.583 147.071c-8.264-2.39-16.459-2.39-24.928-1.366-4.439.546-11.269-.478-11.2-6.351 0-3.484.341-6.83 1.775-9.562-8.605 1.3-14.956 5.6-23.63 6.078-3.893.2-7.717-1.229-11.4-2.663-1.912-.751-3.552-1.161-5.464-1.844-6.083 19.737-22.952 35.445-25.957 55.937a50.921 50.921 0 0 0-.342 10.176 53.3 53.3 0 0 1 6.625-.615c9.152-.273 18.167 1.435 27.182 2.664 1.3.205 2.595.341 3.961.478a59.553 59.553 0 0 1 .956-13.523c1.844-9.424 6.761-18.576 14.752-23.971 16.732-11.337 40.089-13.864 56.89-12.635-2.937-1.642-6.42-2.052-9.22-2.803" fill="#d70a32" transform="scale(1.25)"></path>
    <path d="M45.12 126.992c-.614 5.669-1.092 11.747 1.5 16.869a4.042 4.042 0 0 0 2.458 2.39c1.776.41 3.21-1.3 4.235-2.8a61.469 61.469 0 0 0 9.766-30.118 3.018 3.018 0 0 0-.137-1.366c-.409-.956-1.57-1.229-2.595-1.434-3.073-.478-10.722-3-12.634.41-1.093 1.98-1.23 5.122-1.571 7.307-.342 2.937-.68 5.874-1.022 8.742" fill="#ef6767" transform="scale(1.25)"></path>
    <path d="M55.774 123.919a28.777 28.777 0 0 0-6.01 5.122 17.081 17.081 0 0 0-3.824 12.02 7.664 7.664 0 0 0 1.024 3.688 3.9 3.9 0 0 0 3.142 1.98c1.434.069 2.663-.819 3.824-1.639 4.1-2.936 26.909-27.113 25.406-34.011-1.092-4.917-3.756-1.5-6.146.683-5.259 4.849-11.61 8.196-17.416 12.157" fill="#f9bdb4" transform="scale(1.25)"></path>
    <path d="M88.829 66.277c7.171-1.024 18.918.137 24.314 5.054 6.419 5.8 10.381 14.752 17.757 19.123-2.732 2.39-5.532 4.644-8.4 6.9a28.106 28.106 0 0 1-10.927 5.532 162.008 162.008 0 0 0-11.61-23.7c-2.391-3.961-5.4-8.4-10.04-8.878a12.66 12.66 0 0 1-7.786 6.215 18.551 18.551 0 0 1-11.815-1.3C66.36 81.917 63.765 88.61 64.448 96.4c.341 4.166.546 8.4.615 12.634a17.1 17.1 0 0 1-1.025 6.147 171.167 171.167 0 0 0-22.879-1.844c1.571-5.532 3.21-11 4.781-16.528 1.161-3.892 2.254-7.854 4.371-11.337 4.1-6.9 11.61-10.79 19.874-14.2a7.844 7.844 0 0 0 5.668 2.527A14.652 14.652 0 0 0 82 72.7a11.151 11.151 0 0 0 6.829-6.423" fill="#643cff" transform="scale(1.25)"></path>
    <path d="m78.449 154.105 5.327-61.397h53.065l1.776 2.731-58.393 61.398z" fill="#14d29b" transform="scale(1.25)"></path>
    <path d="m80.224 156.837 43.095-2.322 15.298-59.076H85.62z" fill="#008c6e" transform="scale(1.25)"></path>
    <path d="M110.752 118.8a1.433 1.433 0 0 1-1.707-.069 3.359 3.359 0 0 0-3.073-1.092 5.228 5.228 0 0 0-3.347 3.005 7.608 7.608 0 0 0 .2 6.01 4.59 4.59 0 0 0 1.639 2.117c1.229.683 1.912-.069 3.21-.069a4.036 4.036 0 0 1 1.3.342 4.762 4.762 0 0 0 4.3-1.366 17.942 17.942 0 0 0 2.869-3.893 2.251 2.251 0 0 1-2.049-1.912 3.19 3.19 0 0 1 1.366-3.005 2.661 2.661 0 0 0-3.074-.82c-.473.134-1.019.544-1.634.752" fill="#ffffff" transform="scale(1.25)"></path>
    <path d="M114.782 113.743a4.661 4.661 0 0 0-4.918 4.3c.069-.066 4.303.071 4.918-4.3" fill="#ffffff" transform="scale(1.25)"></path>
    <path d="M91.017 104.823a2.254 2.664 7.158 1 0 .664-5.286 2.254 2.664 7.158 1 0-.664 5.286" transform="scale(1.25)"></path>
    <path d="m99.279 148.778-.41 2.596 12.498-.205.478-2.869z" fill="#ffffff" transform="scale(1.25)"></path>
    <path d="M133.017 127.334a3.7 3.7 0 0 1-1.093.956c-1.229.819-2.459 1.639-3.756 2.458-.137.069-.273.137-.342.069s-.068-.137-.136-.137c-.137-.41.136-.751.341-1.093.41-.614.888-1.229 1.3-1.775a9.047 9.047 0 0 1 1.844-1.776c.409-.273 1.707-.956 2.253-.615.477.205-.138 1.571-.411 1.913" fill="#f9bdb4" transform="scale(1.25)"></path>
    <path d="M132.334 128.016a6.084 6.084 0 0 0 .683-.614c.273-.342.888-1.708.478-1.981-.547-.341-1.844.342-2.254.615a7.592 7.592 0 0 0-1.844 1.776 4.122 4.122 0 0 0-.478.683 11.451 11.451 0 0 1 3.415-.479" fill="#ef6767" transform="scale(1.25)"></path>
    <path d="M135.134 122.075a15.679 15.679 0 0 1-.342 3.073 1.712 1.712 0 0 1-.409.956 2.3 2.3 0 0 1-1.5.615q-3.074.308-6.147.41a6.581 6.581 0 0 1-1.639-.069.357.357 0 0 1-.273-.136c-.136-.137-.068-.41.069-.615a2.964 2.964 0 0 1 .887-.956 7.912 7.912 0 0 1 3.483-1.229c1.435-.274 2.937-.547 4.371-.82a6.58 6.58 0 0 0 1.5-1.229" fill="#f9bdb4" transform="scale(1.25)"></path>
    <path d="M130.7 124.943c1.366 0 2.731 0 4.166-.068a12.563 12.563 0 0 0 .273-2.8c-.41.341-.888 1.024-1.434 1.092-1.435.274-2.937.547-4.371.82a8.948 8.948 0 0 0-3.21 1.093c1.497-.069 3.068-.137 4.576-.137" fill="#ef6767" transform="scale(1.25)"></path>
    <path d="M135.475 116.543a29.4 29.4 0 0 1 .683 3.551 3.742 3.742 0 0 1-.273 2.595 4.211 4.211 0 0 1-3 1.435c-2.732.478-5.464.887-8.127 1.366a.808.808 0 0 1-.683-.069.714.714 0 0 1-.075-.821 5.28 5.28 0 0 1 2.868-2.391 36.966 36.966 0 0 1 5.259-1.844l.615-2.458z" fill="#f9bdb4" transform="scale(1.25)"></path>
    <path d="M129.534 121.528a42.694 42.694 0 0 1 6.693-1.092.612.612 0 0 0-.069-.342c-.2-1.161-.409-2.39-.683-3.551l-2.731 1.434-.615 2.459a34.122 34.122 0 0 0-5.259 1.844 4.764 4.764 0 0 0-1.161.614 14.327 14.327 0 0 1 3.825-1.366" fill="#ef6767" transform="scale(1.25)"></path>
    <path d="M133.7 114.426a54.751 54.751 0 0 0-6.9 4.917 3.834 3.834 0 0 0-1.025 1.093c-.136.273-.409.956-.068 1.229.273.2.751-.068 1.024-.137a10.451 10.451 0 0 0 1.571-.478l3.688-1.229c1.093-.41 2.254-.751 3.347-1.229a4.57 4.57 0 0 0 1.229-.752 3.277 3.277 0 0 0 .546-1.092 11.953 11.953 0 0 0 .82-3.757c-.068-1.3-1.639-2.868-2.868-3.346" fill="#f9bdb4" transform="scale(1.25)"></path>
    <path d="M73.736 50.569c-.136-.068-.273-.068-.341.069-.069.068.068.273.136.273a.208.208 0 0 0 .205-.342m-3.688-3.414a.312.312 0 0 0 0-.342c-.273-.341-.683 0-.819.273-.069.273.273.41.478.342a.455.455 0 0 0 .341-.273m-3.141 3.687c-.069-.068-.137-.136-.2-.136.2-.137-.615-.273-.41.068a.147.147 0 0 0 .136.137.208.208 0 0 0 0 .273c.069.137.2.137.342.068a.582.582 0 0 0 .2-.341.067.067 0 0 0-.068-.069m5.736-3.961c0-.136-.068-.2-.2-.136-.069.068-.137.068-.2.205a.253.253 0 0 0 .068.2c.068.068.2 0 .273-.069a.251.251 0 0 0 .059-.2m1.503 1.503a.252.252 0 0 0-.2-.068.354.354 0 0 0-.273.136c-.068.068 0 .137.068.2.137 0 .2-.068.273-.068.132.005.2-.132.132-.2M71 49.2a.251.251 0 0 0-.2-.068.237.237 0 0 0-.136.068c-.068.069-.068.069-.068.137v.137c.068.068.2.136.273.068.136 0 .2-.2.136-.342zm-2.728-1.636c-.068 0-.068 0-.068.069-.068.068 0 .2.137.136a.131.131 0 0 0 .068-.2zm5.528-.614c.069 0 .069-.137 0-.205-.068 0-.136.068-.068.136a.067.067 0 0 0 .068.069m-6.757 2.25c0 .069 0 .137.068.137s.069 0 .069-.068c.068-.069-.069-.134-.137-.069m-1.024-.338a.323.323 0 0 0 .341-.342.364.364 0 0 0-.478-.341c-.341.137-.341.546.068.683zM63.9 47.428c-.137-.2-.547-.069-.615.205-.068.136.068.341.136.409a.519.519 0 0 0 .547-.409c.002-.069-.068-.133-.068-.205m-.135 2.936c-.137-.273-.546.137-.2.274.2.068.268-.138.2-.274m-.342-.204a.523.523 0 0 0-.136-.342c-.2-.068-.41.068-.342.273a.294.294 0 0 0 .274.273.217.217 0 0 0 .204-.204m-1.297-.683a.389.389 0 0 0-.478-.274.585.585 0 0 0-.478.41.532.532 0 0 0 .136.547c.137.136.342.341.547.341.409 0 .409-.751.273-1.024m7.103 1.092c-.069 0-.069 0-.137.069-.068.136.2.2.2.068.073-.068.008-.137-.063-.137m-.683.069c-.069-.069-.137-.137-.274-.069s-.2.137-.2.273a.3.3 0 0 0 .2.41c.41.137.479-.41.274-.614m25.815-4.849c-.068-.069-.136-.137-.2-.137.2-.137-.615-.273-.41.068a.146.146 0 0 0 .136.137.208.208 0 0 0 0 .273c.069.137.2.137.342.068a.582.582 0 0 0 .205-.341zm.139-1.571c0 .068 0 .136.068.136s.069 0 .069-.068c.063-.137-.137-.205-.137-.068m-.89-2.595c-.068-.137-.2-.2-.41-.069-.2.2-.068.41.2.342.21-.069.278-.205.21-.273m-.205 2.185a.323.323 0 0 0 .342-.341.364.364 0 0 0-.478-.342c-.342.137-.342.546.068.683zm-2.049-1.434c-.136-.205-.546-.068-.614.2-.069.136.068.341.136.409a.519.519 0 0 0 .547-.409.25.25 0 0 1-.069-.2m-.136 2.937c-.137-.274-.547.136-.2.273.131.068.2-.137.2-.273m-.342-.205a.523.523 0 0 0-.136-.342c-.2-.068-.41.068-.342.273a.3.3 0 0 0 .273.274.181.181 0 0 0 .205-.205m-1.297-.683a.389.389 0 0 0-.478-.274.585.585 0 0 0-.478.41.532.532 0 0 0 .136.547c.137.136.342.341.547.341.409 0 .409-.751.273-1.024M93 42.306c-.136-.2-.546-.069-.614.2-.068.137.068.342.136.41a.52.52 0 0 0 .547-.41.3.3 0 0 0-.069-.2m-.141 2.936c-.137-.273-.546.137-.2.273.2 0 .268-.136.2-.273m-.342-.205a.522.522 0 0 0-.136-.341c-.2-.068-.41.068-.342.273a.294.294 0 0 0 .274.273c.136-.068.204-.136.204-.205M66.5 53.779c-.137-.068-.273-.068-.342.068-.068.069.069.274.137.274a.208.208 0 0 0 .205-.342" fill="#ef6767" transform="scale(1.25)"></path>
    <path d="M71.414 49a.311.311 0 0 0 0-.341c-.273-.341-.683 0-.819.273-.069.273.273.41.478.342a.454.454 0 0 0 .341-.274m-3.142 3.686c-.068-.068-.136-.136-.2-.136.2-.137-.615-.273-.41.068a.147.147 0 0 0 .136.137.208.208 0 0 0 0 .273c.069.137.2.137.342.068a.582.582 0 0 0 .2-.341.068.068 0 0 0-.068-.069m5.737-3.961c0-.136-.068-.2-.2-.136-.068.068-.136.068-.2.2a.25.25 0 0 0 .068.2c.068.069.2 0 .273-.068a.251.251 0 0 0 .059-.196m-4.371.752c-.068 0-.068 0-.068.068-.068.068 0 .2.137.136a.13.13 0 0 0 .068-.2zm-1.229 1.639c0 .068 0 .136.068.136s.069 0 .069-.068c.068-.137-.069-.205-.137-.068m.546-2.049c-.068-.069-.136.068-.068.068 0 .065.068 0 .068-.068m-1.434-.547c-.068-.136-.2-.2-.41-.068-.2.2-.068.41.2.342s.279-.137.21-.274m-.136 2.186a.323.323 0 0 0 .341-.342.364.364 0 0 0-.478-.341c-.341.137-.341.546.068.683zm-2.118-1.366c-.136-.205-.546-.068-.614.2-.068.136.068.341.136.41a.52.52 0 0 0 .547-.41.3.3 0 0 0-.069-.2M64.789 52a.522.522 0 0 0-.136-.341c-.205-.068-.41.068-.342.273a.294.294 0 0 0 .274.273.181.181 0 0 0 .204-.205m-1.297-.679a.389.389 0 0 0-.478-.274.585.585 0 0 0-.478.41.53.53 0 0 0 .136.546c.137.137.342.342.547.342.409 0 .409-.751.273-1.024" fill="#ef6767" transform="scale(1.25)"></path>
  </g>
</svg>