<svg xmlns="http://www.w3.org/2000/svg" fill="none" viewBox="0 0 200 200" height="200" width="200">
  <g id="avatar-13--user-profile-avatar-lifestyle-character">
    <path id="Vector" fill="#FFE6D7" d="M192.728 102.272c0 20.382 -6.575 39.23 -17.723 54.528 -3.01 4.135 -6.349 8.007 -9.987 11.579C148.282 184.845 125.328 195 100 195c-10.9508 0 -21.4633 -1.899 -31.2234 -5.391 -18.227 -6.517 -33.8168 -18.571 -44.7384 -34.146 -10.5637 -15.056 -16.76598 -33.4 -16.76598 -53.191C7.27222 51.0539 48.789 9.54443 100 9.54443s92.728 41.50947 92.728 92.72757" stroke-width="1"></path>
    <path id="Vector_2" fill="#441F19" d="M69.0323 52.7487c-5.2088 -4.3979 3.8573 -11.4987 8.0287 -20.2214 0 0 -8.0287 -1.0009 -4.1714 -7.8753 3.8572 -6.8671 15.6701 -13.8949 22.2304 -12.3461 0 0 12.66 -13.047523 18.753 -3.55047 0 0 3.704 -4.99691 8.796 -3.46277s4.785 6.77944 4.785 6.77944 2.601 -3.73308 7.561 1.388c0 0 5.559 -1.5414 9.723 4.7851 4.172 6.3265 9.03 14.5889 0 13.2739 0 0 6.1 10.6514 1.929 12.6603 -4.171 2.009 -6.641 -2.5495 -6.641 -2.5495s1.235 4.7047 -1.315 5.7859l0.088 23.1874 -54.8052 -14.5451s-2.5496 -4.3248 -2.009 -7.7219c0 0 -6.268 10.0596 -12.9671 4.3979z" stroke-width="1"></path>
    <path id="Vector_3" fill="#000000" d="M81.9994 48.3508c-0.1023 -3.9668 1.5561 -14.5451 6.0927 -16.8536 0.9059 -0.4602 1.9725 -0.1242 2.9514 0.2119 3.229 1.1104 5.6544 6.2388 5.7567 6.458l-0.6648 0.3068c-0.0219 -0.0511 -3.0025 -4.6901 -5.9393 -5.6982 -0.7963 -0.2776 -1.2419 -0.095 -1.9724 0.2849 -4.0911 2.082 -6.3266 11.2576 -6.2243 15.2975z" stroke-width="1"></path>
    <path id="Vector_4" fill="#000000" d="m86.3827 56.9055 -0.3287 -0.6501c3.9595 -1.9944 4.2882 -7.5539 4.5805 -12.4558 0.0803 -1.3661 0.1534 -2.6519 0.3068 -3.828 0.2118 -1.6438 0.7451 -2.6008 1.5999 -2.8419 1.5999 -0.4529 3.5358 1.8556 3.755 2.1186l-0.5699 0.4603c-0.4675 -0.5772 -2.0236 -2.1478 -2.9879 -1.8775 -0.6794 0.1972 -0.9643 1.3223 -1.0739 2.2354 -0.1461 1.147 -0.2191 2.4254 -0.2995 3.7769 -0.2995 5.0992 -0.6429 10.8851 -4.975 13.0694z" stroke-width="1"></path>
    <path id="Vector_5" fill="#000000" d="M103.521 35.0623c-0.014 -0.073 -1.388 -7.057 -9.0732 -11.0896 -7.5757 -3.9742 -17.2919 8.4231 -17.3869 8.5546l-0.8985 -0.1826s3.0755 -3.3605 6.4726 -6.1c4.5659 -3.682 8.7665 -4.6901 12.1562 -2.9149 8.0138 4.2006 9.3948 11.3015 9.4528 11.601l-0.716 0.1315z" stroke-width="1"></path>
    <path id="Vector_6" fill="#000000" d="m110.111 33.8643 -0.731 -0.0439c1.052 -17.9786 -13.6317 -21.3903 -14.26 -21.5145l0.5698 -0.5552c0.1607 0.0293 15.5022 3.4847 14.4212 22.1136" stroke-width="1"></path>
    <path id="Vector_7" fill="#000000" d="m117.891 33.3309 -0.701 -0.2118c3.915 -13.1717 -3.244 -24.25404 -3.317 -24.36362l0.438 -0.52599c0.081 0.10958 7.591 11.57181 3.573 25.09411z" stroke-width="1"></path>
    <path id="Vector_8" fill="#000000" d="m126.446 34.602 -0.672 -0.2922c5.427 -12.5215 1.724 -22.1428 1.687 -22.2377l0.658 -0.6429c0.043 0.095 3.886 10.3591 -1.673 23.1655z" stroke-width="1"></path>
    <path id="Vector_9" fill="#000000" d="m132.268 38.9269 -0.577 -0.4456c5.099 -6.6699 5.654 -13.0621 5.216 -17.2481 -0.475 -4.5513 -1.863 -7.7438 -1.878 -7.773l0.519 -0.095c0.073 0.1242 6.787 12.3973 -3.28 25.5617" stroke-width="1"></path>
    <path id="Vector_10" fill="#000000" d="M144.753 31.5265c-1.892 -6.8014 -7.167 -8.7519 -7.218 -8.7738v-1.052c0.212 0.0876 5.815 2.7322 7.81 9.8988z" stroke-width="1"></path>
    <path id="Vector_11" fill="#000000" d="M140.041 41.6373c-1.644 -6.1658 -4.405 -8.467 -4.427 -8.4889l0.329 -0.7671c0.095 0.0877 3.499 3.3898 4.507 9.8843l-0.416 -0.6283z" stroke-width="1"></path>
    <path id="Vector_12" fill="#C1573C" d="M175.005 156.8C158.144 179.951 130.829 195 100 195c-30.8289 0 -59.1959 -15.626 -75.9619 -39.537 1.2712 -4.376 2.6008 -9.336 3.9815 -14.932 7.7072 -31.267 35.5482 -36.418 52.0877 -37.104 5.333 -0.22 9.4898 0.021 11.4184 0 7.9337 -0.081 9.1903 -16.4888 9.1903 -16.4888 -4.7924 -3.7623 -7.0644 -13.3398 -7.0644 -13.3398s-4.2299 0.0001 -8.204 -4.0325c-3.9815 -4.0253 -6.4726 -14.5452 -0.453 -15.0492 3.8792 -0.3215 2.4912 2.0893 5.5595 2.776 3.0609 0.694 3.7915 -7.32 3.4847 -10.5344 -0.3069 -3.2217 -0.5772 -5.2161 2.703 -9.3217 3.2732 -4.1057 19.7102 -4.8216 26.6722 -4.4052 6.969 0.4164 10.059 7.6196 11.316 10.476 1.249 2.8637 2.674 9.5263 3.273 10.0888 0.592 0.5552 0.906 -1.9433 0.906 -1.9433 0.467 -3.7696 7.071 -1.2565 6.545 3.9961 -0.533 9.4825 -6.48 12.4923 -6.48 12.4923 -0.723 19.0964 -11.564 24.9773 -11.564 24.9773s-0.723 5.6178 -0.46 10.8344c0.175 3.455 9.161 5.354 18.563 7.327 4.799 1.008 9.709 2.038 13.617 3.309 10.235 3.339 14.932 34.971 15.875 42.211" stroke-width="1"></path>
    <path id="Vector_13" fill="#FCB444" d="M175.005 156.8C158.144 179.951 130.829 195 100 195c-30.8289 0 -59.1959 -15.626 -75.9619 -39.537 1.2712 -4.376 2.6008 -9.336 3.9815 -14.932 7.7072 -31.267 35.5482 -36.418 52.0877 -37.104 0 0 11.4841 15.187 37.0017 15.019 12.354 -0.08 21.873 -3.586 28.404 -7.166 4.799 1.008 9.709 2.038 13.617 3.309 10.235 3.339 14.932 34.971 15.875 42.211" stroke-width="1"></path>
    <path id="Vector_14" fill="#000000" d="M88.0264 66.2931c-4.8946 -3.3824 -3.324 -7.4077 -3.3094 -7.4515l0.6794 0.2776c-0.0584 0.1461 -1.3515 3.5358 3.0464 6.5748z" stroke-width="1"></path>
    <path id="Vector_15" fill="#000000" d="m141.546 60.624 -0.636 -0.3653c1.9 -3.3021 0.731 -5.8736 0.68 -5.9831l0.657 -0.3142c0.059 0.1242 1.403 3.0099 -0.701 6.6626" stroke-width="1"></path>
    <path id="Vector_16" fill="#000000" d="m138.953 68.3458 -0.168 -1.052c0.745 -4.018 0.16 -7.0498 0.16 -7.0863h0.731s0.022 4.0838 -0.723 8.1383" stroke-width="1"></path>
    <path id="Vector_17" fill="#000000" d="M116.7 68.1851c-2.096 0 -3.368 -0.6283 -3.463 -0.6721l0.329 -0.6502c0.037 0.0219 3.894 1.8921 9.351 -1.22l0.365 0.6356c-2.615 1.4903 -4.872 1.9067 -6.582 1.9067" stroke-width="1"></path>
    <path id="Vector_18" fill="#ffffff" d="M117.314 74.1974c-4.405 -0.4603 -7.284 -0.8036 -6.897 0.3433 0.388 1.147 2.798 3.9084 6.897 3.945 4.098 0.0365 7.086 -1.5707 6.589 -2.8711 -0.496 -1.3003 -5.713 -1.3296 -6.589 -1.4172" stroke-width="1"></path>
    <path id="Vector_19" fill="#000000" d="m99.2987 59.5062 -0.5406 -0.4895c0.0511 -0.0584 1.3369 -1.4611 3.4409 -2.3962 2.075 -0.9204 4.179 -1.0592 6.253 -0.4018 0.95 0.3069 1.885 0.7744 2.776 1.3954l-0.416 0.599c-0.833 -0.5771 -1.702 -1.0154 -2.586 -1.3003 -1.9 -0.5991 -3.828 -0.4749 -5.735 0.3725 -1.958 0.8694 -3.185 2.2063 -3.1923 2.2209" stroke-width="1"></path>
    <path id="Vector_20" fill="#000000" d="m123.414 56.3722 -0.621 -0.3872c0.029 -0.0511 0.782 -1.2492 2.498 -2.2793 1.542 -0.9278 3.361 -1.4099 5.399 -1.4318 1.366 -0.022 2.82 0.1753 4.339 0.5771l-0.182 0.7086c-1.461 -0.3799 -2.871 -0.5625 -4.15 -0.5479 -1.906 0.0219 -3.601 0.4749 -5.033 1.3296 -1.549 0.9278 -2.243 2.0236 -2.25 2.0382z" stroke-width="1"></path>
    <path id="Vector_21" fill="#441F19" d="M102.988 46.9482c-6.816 1.2931 -6.5603 4.975 -5.0189 5.5156 1.5487 0.5406 3.1339 -1.125 6.1879 -0.8766 3.053 0.2484 5.435 0.0804 5.223 -2.5934s-6.392 -2.0456 -6.392 -2.0456" stroke-width="1"></path>
    <path id="Vector_22" fill="#441F19" d="M128.776 43.1859c-5.296 0.6064 -7.481 3.8865 -5.472 4.9312s4.267 -0.5844 6.064 -0.5041c1.797 0.0804 5.523 0.0439 5.581 -1.293 0.059 -1.3369 -1.775 -3.6381 -6.166 -3.1341z" stroke-width="1"></path>
    <path id="Vector_23" fill="#1E1732" d="M108.562 57.7165c0 1.7387 -1.417 3.1559 -3.156 3.1559s-3.156 -1.4172 -3.156 -3.1559c0 -0.263 0.029 -0.526 0.095 -0.7671 1.593 -0.7086 3.667 -1.125 5.998 -0.3872 0.139 0.358 0.219 0.7452 0.219 1.1543" stroke-width="1"></path>
    <path id="Vector_24" fill="#1E1732" d="M131.574 54.7943c0 1.7094 -1.388 3.0975 -3.097 3.0975 -1.71 0 -3.098 -1.3881 -3.098 -3.0975 0 -0.2703 0.037 -0.526 0.102 -0.7744 1.206 -0.7232 2.915 -1.3515 5.216 -1.3807 0.541 0.5552 0.877 1.3149 0.877 2.1551" stroke-width="1"></path>
    <path id="Vector_25" fill="#FEB148" d="M89.6482 75.9726c-0.0803 0 -0.1607 0 -0.2484 -0.0073 -2.2427 -0.1315 -3.9668 -2.0748 -3.828 -4.3175 0.0146 -0.2265 0.0438 -0.453 0.095 -0.6721 0.073 -0.3142 0.3871 -0.5114 0.7013 -0.4384 0.3141 0.0731 0.5114 0.3872 0.4383 0.7014 -0.0365 0.1607 -0.0584 0.3214 -0.073 0.4821 -0.095 1.5999 1.1323 2.9806 2.7322 3.0829 1.5999 0.0804 2.9879 -1.1323 3.0829 -2.7322 0.0438 -0.7233 -0.1827 -1.4319 -0.6356 -1.9944 -0.5114 -0.6429 -1.2784 -1.0374 -2.0967 -1.0885 -0.3214 -0.0219 -0.5698 -0.2995 -0.5479 -0.621 0.022 -0.3214 0.3069 -0.5625 0.621 -0.5479 1.147 0.0658 2.2208 0.621 2.9368 1.5195 0.6355 0.789 0.9497 1.7826 0.8912 2.798 -0.1315 2.1624 -1.9286 3.8354 -4.0691 3.8354" stroke-width="1"></path>
    <path id="Vector_26" fill="#000000" d="M116.371 97.1145c-3.47 0 -6.275 -0.6356 -6.509 -0.6867l0.168 -0.7086c0.11 0.0292 12.054 2.5642 17.38 -2.5935l-0.095 0.8329c-2.871 2.7833 -7.313 3.1632 -10.944 3.1632z" stroke-width="1"></path>
    <path id="Vector_27" fill="#FEB148" d="M104.31 70.5008c-5.6761 0 -10.2858 -4.617 -10.2858 -10.286 0 -5.6691 4.617 -10.2861 10.2858 -10.2861 5.669 0 10.286 4.617 10.286 10.2861 0 5.669 -4.617 10.286 -10.286 10.286m0 -19.4105c-5.0259 0 -9.1243 4.091 -9.1243 9.1245 0 5.0334 4.0911 9.1244 9.1243 9.1244 5.034 0 9.125 -4.091 9.125 -9.1244 0 -5.0335 -4.091 -9.1245 -9.125 -9.1245" stroke-width="1"></path>
    <path id="Vector_28" fill="#FEB148" d="M130.12 66.8846c-5.676 0 -10.286 -4.617 -10.286 -10.2861 0 -5.669 4.617 -10.286 10.286 -10.286s10.286 4.617 10.286 10.286c0 5.6691 -4.617 10.2861 -10.286 10.2861m0 -19.4105c-5.026 0 -9.124 4.091 -9.124 9.1244 0 5.0335 4.091 9.1245 9.124 9.1245 5.034 0 9.125 -4.091 9.125 -9.1245 0 -5.0334 -4.091 -9.1244 -9.125 -9.1244" stroke-width="1"></path>
    <path id="Vector_29" fill="#FEB148" d="m114.143 58.6587 -0.672 -0.957c0.11 -0.0804 2.769 -1.9213 7.05 -1.1396l-0.212 1.1469c-3.77 -0.694 -6.136 0.9278 -6.166 0.9424z" stroke-width="1"></path>
    <path id="Vector_30" fill="#F9E7D9" d="m84.3007 126.643 8.5619 -5.603s40.8884 9.344 49.7134 14.406c0 0 9.862 -20.185 17.197 -23.947l11.879 4.931 -21.946 35.008 -64.3387 -18.95z" stroke-width="1"></path>
    <path id="Vector_31" fill="#40846C" d="m173.105 113.961 -8.087 54.418C148.282 184.846 125.328 195 100 195c-10.9508 0 -21.4633 -1.899 -31.2234 -5.391l11.1408 -64.61c4.2152 0.928 63.8496 13.399 63.8496 13.399l5.435 -0.541z" stroke-width="1"></path>
    <path id="Vector_32" fill="#000000" d="m135.614 187.614 -0.716 -0.124 8.467 -48.895c-9.943 -5.143 -55.2801 -14.049 -55.7258 -14.136l1.3442 -0.877c1.8483 0.358 45.3956 9.307 54.9656 14.494l0.234 0.124 -8.554 49.414z" stroke-width="1"></path>
    <path id="Vector_33" fill="#000000" d="m141.809 185.269 -0.723 -0.124 8.116 -47.288 0.862 -0.833z" stroke-width="1"></path>
    <path id="Vector_34" fill="#000000" d="m147.178 138.069 -0.745 0.058c2.097 -8.43 19.761 -23.07 20.492 -23.662l0.847 0.351c-0.175 0.146 -18.563 15.056 -20.601 23.253z" stroke-width="1"></path>
    <path id="Vector_35" fill="#000000" d="m145.345 138.244 -0.76 0.073c1.417 -9.636 17.168 -25.123 17.796 -25.737l0.84 0.351c-0.153 0.146 -16.496 15.918 -17.876 25.313" stroke-width="1"></path>
    <path id="Vector_36" fill="#000000" d="M118.081 122.15c-7.905 0 -14.867 -1.702 -20.4333 -3.799 -13.2667 -4.989 -22.4277 -14.508 -22.5154 -14.596l1.0593 -0.095c0.0804 0.081 8.6058 9.081 21.741 14.012 12.0974 4.544 30.5294 7.393 51.2474 -5.64l0.796 0.19c-11.447 7.203 -22.383 9.921 -31.888 9.921z" stroke-width="1"></path>
    <path id="Vector_37" fill="#C2583E" d="M49.0081 158.984s18.3804 -19.023 29.0829 -23.406l-1.5123 8.744s21.2442 3.017 20.7036 9.906c-0.4237 2.828 -14.2602 -0.533 -14.2602 -0.533s13.7781 8.014 12.653 13.99c-1.0154 3.843 -7.0497 -0.906 -7.0497 -0.906s2.9879 2.031 2.9879 4.215c0 2.185 -2.5642 4.858 -6.1438 3.149 -3.5797 -1.709 -12.653 -6.677 -12.653 -6.677s-8.8615 11.645 -19.0088 13.99c0 0 -9.3436 0.372 -4.8069 -22.486z" stroke-width="1"></path>
    <path id="Vector_38" fill="#000000" d="m64.2034 146.865 -0.4018 -0.607c0.2192 -0.146 4.9969 -3.579 12.8868 -2.527l-0.1023 0.606c-7.6049 -1.008 -12.3242 2.498 -12.3754 2.535z" stroke-width="1"></path>
    <path id="Vector_39" fill="#000000" d="m84.9946 154.937 -8.635 -3.989 0.7233 -0.665 5.9393 3.419z" stroke-width="1"></path>
    <path id="Vector_40" fill="#000000" d="m89.2975 167.312 -10.2349 -6.553 0.4091 -0.606 11.1043 7.919z" stroke-width="1"></path>
    <path id="Vector_41" fill="#000000" d="M63.3194 145.06c-4.9385 -10.848 -18.3001 -30.69 -18.4316 -30.895l0.6064 -0.409c0.1315 0.198 13.5296 20.098 18.4973 30.997l-0.6648 0.3z" stroke-width="1"></path>
    <path id="Vector_42" fill="#000000" d="m31.592 164.872 -0.9571 -1.059c1.5926 -0.993 16.9852 -10.154 19.0307 -9.913 2.1113 0.27 2.9733 1.548 3.0098 1.607l-0.6136 0.394c-0.0293 -0.043 -0.7233 -1.059 -2.4912 -1.278l-0.0657 0c-1.5634 0 -12.0759 6.611 -17.9202 10.249z" stroke-width="1"></path>
    <path id="Vector_43" fill="#000000" d="m57.6504 184.882 -0.5625 -0.467c2.3962 -2.886 1.5926 -4.238 1.578 -4.252l0.6063 -0.409c0.0512 0.073 1.1689 1.768 -1.6218 5.128" stroke-width="1"></path>
    <path id="Vector_44" fill="#C2583E" d="M157.523 146.499c-2.009 -4.755 2.089 -7.239 4.96 -9.153s8.255 -5.735 10.615 -1.973 -2.184 7.057 -2.184 7.057 3.886 -0.657 3.112 3.229c-0.775 3.887 -3.646 6.933 -3.646 6.933s2.63 6.458 -5.143 9.504c-7.773 3.047 -7.115 -4.902 -7.115 -4.902s-2.389 -1.672 -2.155 -4.127 3.528 -4.427 3.528 -4.427 -1.483 -0.994 -1.972 -2.155z" stroke-width="1"></path>
    <path id="Vector_45" fill="#000000" d="m158.611 149.348 0.884 -0.694c0.095 -0.044 10.243 -4.726 12.434 -7.13l-1.008 0.906c-2.959 3.309 -11.915 6.743 -12.302 6.911z" stroke-width="1"></path>
    <path id="Vector_46" fill="#000000" d="m158.107 157.684 0.015 -0.475c0.088 -0.007 8.956 -1.162 12.258 -4.603l0.161 0.512c-3.484 3.631 -12.068 4.529 -12.434 4.573z" stroke-width="1"></path>
  </g>
</svg>